<svg xmlns="http://www.w3.org/2000/svg" xmlns:xlink="http://www.w3.org/1999/xlink" version="1.1" width="48" height="48" enable-background="new 0 0 100 100" xml:space="preserve" style=""><rect id="backgroundrect" width="100%" height="100%" x="0" y="0" fill="none" stroke="none"/>

<g class="currentLayer" style=""><title>Layer 1</title><path fill-rule="evenodd" clip-rule="evenodd" d="M45.994000217437744,25.996000217437746 h-3.998 c-1.105,0 -2,-0.8950000000000002 -2,-1.999 s0.8950000000000002,-2 2,-2 h3.998 c1.105,0 2,0.8960000000000002 2,2 S47.10000021743774,25.996000217437746 45.994000217437744,25.996000217437746 zM38.13900021743774,12.685000217437747 c-0.781,0.781 -2.049,0.781 -2.8280000000000003,0 c-0.781,-0.781 -0.781,-2.047 0,-2.8280000000000003 l2.8280000000000003,-2.8280000000000003 c0.779,-0.781 2.047,-0.781 2.8280000000000003,0 c0.779,0.781 0.779,2.047 0,2.8280000000000003 L38.13900021743774,12.685000217437747 zM23.998000217437742,35.99500021743774 c-6.627,0 -12,-5.372 -12,-11.998 c0,-6.627 5.372,-11.999 12,-11.999 c6.627,0 11.998,5.372 11.998,11.999 C35.99600021743775,30.623000217437742 30.625000217437744,35.99500021743774 23.998000217437742,35.99500021743774 zM23.998000217437742,15.998000217437742 c-4.418,0 -8,3.581 -8,7.999 c0,4.417 3.583,7.999 8,7.999 s7.998,-3.582 7.998,-7.999 C31.996000217437746,19.579000217437745 28.41600021743774,15.998000217437742 23.998000217437742,15.998000217437742 zM23.998000217437742,7.999000217437747 c-1.105,0 -2,-0.8960000000000002 -2,-2 v-3.999 c0,-1.104 0.8950000000000002,-2 2,-2 c1.104,0 2,0.8960000000000002 2,2 v3.999 C25.998000217437742,7.103000217437746 25.101000217437743,7.999000217437747 23.998000217437742,7.999000217437747 zM9.857000217437744,12.685000217437747 l-2.8280000000000003,-2.8280000000000003 c-0.781,-0.781 -0.781,-2.047 0,-2.8280000000000003 s2.047,-0.781 2.8280000000000003,0 l2.8280000000000003,2.8280000000000003 c0.781,0.781 0.781,2.047 0,2.8280000000000003 S10.638000217437742,13.466000217437745 9.857000217437744,12.685000217437747 zM7.999000217437747,23.997000217437744 c0,1.104 -0.8960000000000002,1.999 -2,1.999 h-4 c-1.104,0 -1.999,-0.8950000000000002 -1.999,-1.999 s0.8960000000000002,-2 1.999,-2 h4 C7.1040002174377435,21.997000217437744 7.999000217437747,22.893000217437745 7.999000217437747,23.997000217437744 zM9.857000217437744,35.30900021743774 c0.781,-0.78 2.047,-0.78 2.8280000000000003,0 c0.781,0.781 0.781,2.048 0,2.8280000000000003 l-2.8280000000000003,2.8280000000000003 c-0.781,0.781 -2.047,0.781 -2.8280000000000003,0 c-0.781,-0.78 -0.781,-2.047 0,-2.8280000000000003 L9.857000217437744,35.30900021743774 zM23.998000217437742,39.99500021743775 c1.104,0 2,0.8950000000000002 2,1.999 v4 c0,1.104 -0.8960000000000002,2 -2,2 c-1.105,0 -2,-0.8960000000000002 -2,-2 v-4 C21.998000217437742,40.890000217437745 22.893000217437745,39.99500021743775 23.998000217437742,39.99500021743775 zM38.13900021743774,35.30900021743774 l2.8280000000000003,2.8280000000000003 c0.779,0.781 0.779,2.048 0,2.8280000000000003 c-0.781,0.781 -2.049,0.781 -2.8280000000000003,0 l-2.8280000000000003,-2.8280000000000003 c-0.781,-0.78 -0.781,-2.047 0,-2.8280000000000003 C36.09000021743775,34.52800021743774 37.357000217437744,34.52800021743774 38.13900021743774,35.30900021743774 z" id="svg_1" class="selected" fill="#ffffff" fill-opacity="1"/></g></svg>